<svg xmlns="http://www.w3.org/2000/svg" xmlns:xlink="http://www.w3.org/1999/xlink" width="618" zoomAndPan="magnify" viewBox="0 0 463.5 449.999984" height="600" preserveAspectRatio="xMidYMid meet" version="1.0"><defs><clipPath id="27b5d5a95a"><path d="M 0.597656 0.84375 L 462.402344 0.84375 L 462.402344 449.738281 L 0.597656 449.738281 Z M 0.597656 0.84375 " clip-rule="nonzero"/></clipPath><clipPath id="a6d3035bc5"><path d="M 41.804688 0.84375 L 421.195312 0.84375 C 443.953125 0.84375 462.402344 19.289062 462.402344 42.046875 L 462.402344 408.53125 C 462.402344 431.289062 443.953125 449.738281 421.195312 449.738281 L 41.804688 449.738281 C 19.046875 449.738281 0.597656 431.289062 0.597656 408.53125 L 0.597656 42.046875 C 0.597656 19.289062 19.046875 0.84375 41.804688 0.84375 Z M 41.804688 0.84375 " clip-rule="nonzero"/></clipPath><clipPath id="63e6e7a4b2"><path d="M 47.75 45.710938 L 209.484375 45.710938 L 209.484375 207.445312 L 47.75 207.445312 Z M 47.75 45.710938 " clip-rule="nonzero"/></clipPath><clipPath id="0eaa3355a0"><path d="M 128.617188 45.710938 C 173.277344 45.710938 209.484375 81.917969 209.484375 126.578125 C 209.484375 171.242188 173.277344 207.445312 128.617188 207.445312 C 83.957031 207.445312 47.75 171.242188 47.75 126.578125 C 47.75 81.917969 83.957031 45.710938 128.617188 45.710938 L 128.617188 78.058594 C 101.820312 78.058594 80.097656 99.78125 80.097656 126.578125 C 80.097656 153.375 101.820312 175.097656 128.617188 175.097656 C 155.414062 175.097656 177.136719 153.375 177.136719 126.578125 C 177.136719 99.78125 155.414062 78.058594 128.617188 78.058594 Z M 128.617188 45.710938 " clip-rule="nonzero"/></clipPath><clipPath id="902e83f8b2"><path d="M 128 47 L 210 47 L 210 184 L 128 184 Z M 128 47 " clip-rule="nonzero"/></clipPath><clipPath id="5d39b5acf3"><path d="M 148.832031 48.28125 C 175.601562 55.191406 196.984375 75.296875 205.527344 101.589844 C 214.070312 127.882812 208.589844 156.714844 190.996094 178.039062 C 187.320312 182.496094 181.542969 184.65625 175.84375 183.699219 C 170.144531 182.742188 165.390625 178.820312 163.367188 173.40625 C 161.347656 167.992188 162.367188 161.914062 166.042969 157.457031 C 176.601562 144.660156 179.886719 127.359375 174.761719 111.585938 C 169.636719 95.808594 156.808594 83.746094 140.746094 79.601562 C 135.152344 78.15625 130.753906 73.835938 129.207031 68.269531 C 127.660156 62.699219 129.203125 56.730469 133.25 52.609375 C 137.296875 48.484375 143.238281 46.835938 148.832031 48.28125 Z M 148.832031 48.28125 " clip-rule="nonzero"/></clipPath><clipPath id="0bb20e3fea"><path d="M 244.472656 45.710938 L 406.207031 45.710938 L 406.207031 207.445312 L 244.472656 207.445312 Z M 244.472656 45.710938 " clip-rule="nonzero"/></clipPath><clipPath id="4956bef893"><path d="M 325.339844 45.710938 C 370 45.710938 406.207031 81.917969 406.207031 126.578125 C 406.207031 171.242188 370 207.445312 325.339844 207.445312 C 280.679688 207.445312 244.472656 171.242188 244.472656 126.578125 C 244.472656 81.917969 280.679688 45.710938 325.339844 45.710938 L 325.339844 78.058594 C 298.542969 78.058594 276.820312 99.78125 276.820312 126.578125 C 276.820312 153.375 298.542969 175.097656 325.339844 175.097656 C 352.136719 175.097656 373.859375 153.375 373.859375 126.578125 C 373.859375 99.78125 352.136719 78.058594 325.339844 78.058594 Z M 325.339844 45.710938 " clip-rule="nonzero"/></clipPath><clipPath id="1f32f7e6ed"><path d="M 254 47 L 407 47 L 407 208 L 254 208 Z M 254 47 " clip-rule="nonzero"/></clipPath><clipPath id="10329a82b3"><path d="M 345.558594 48.28125 C 380.664062 57.34375 405.445312 88.671875 406.191406 124.921875 C 406.933594 161.171875 383.453125 193.488281 348.75 203.984375 C 314.042969 214.480469 276.589844 200.589844 257.121094 170 C 254.019531 165.128906 253.75 158.96875 256.421875 153.84375 C 259.09375 148.71875 264.292969 145.410156 270.066406 145.160156 C 275.839844 144.910156 281.304688 147.757812 284.410156 152.632812 C 296.089844 170.984375 318.5625 179.320312 339.386719 173.023438 C 360.210938 166.722656 374.296875 147.335938 373.851562 125.585938 C 373.402344 103.832031 358.535156 85.039062 337.46875 79.601562 C 328.820312 77.367188 323.621094 68.546875 325.855469 59.898438 C 328.085938 51.246094 336.90625 46.046875 345.558594 48.28125 Z M 345.558594 48.28125 " clip-rule="nonzero"/></clipPath><clipPath id="0ed75d3883"><path d="M 47.75 233.09375 L 209.484375 233.09375 L 209.484375 394.824219 L 47.75 394.824219 Z M 47.75 233.09375 " clip-rule="nonzero"/></clipPath><clipPath id="a18f300355"><path d="M 128.617188 233.09375 C 173.277344 233.09375 209.484375 269.296875 209.484375 313.960938 C 209.484375 358.621094 173.277344 394.824219 128.617188 394.824219 C 83.957031 394.824219 47.75 358.621094 47.75 313.960938 C 47.75 269.296875 83.957031 233.09375 128.617188 233.09375 L 128.617188 265.441406 C 101.820312 265.441406 80.097656 287.164062 80.097656 313.960938 C 80.097656 340.757812 101.820312 362.480469 128.617188 362.480469 C 155.414062 362.480469 177.136719 340.757812 177.136719 313.960938 C 177.136719 287.164062 155.414062 265.441406 128.617188 265.441406 Z M 128.617188 233.09375 " clip-rule="nonzero"/></clipPath><clipPath id="df6f41b56a"><path d="M 108 235 L 210 235 L 210 395 L 108 395 Z M 108 235 " clip-rule="nonzero"/></clipPath><clipPath id="afb6c9749f"><path d="M 148.832031 235.660156 C 189.183594 246.078125 215.007812 285.453125 208.488281 326.609375 C 201.96875 367.769531 165.242188 397.234375 123.648438 394.671875 C 117.882812 394.316406 112.742188 390.914062 110.164062 385.742188 C 107.589844 380.570312 107.96875 374.414062 111.160156 369.597656 C 114.351562 364.78125 119.867188 362.03125 125.636719 362.386719 C 150.589844 363.925781 172.628906 346.246094 176.539062 321.550781 C 180.449219 296.855469 164.957031 273.230469 140.746094 266.980469 C 132.097656 264.746094 126.898438 255.925781 129.128906 247.277344 C 131.363281 238.628906 140.183594 233.425781 148.832031 235.660156 Z M 148.832031 235.660156 " clip-rule="nonzero"/></clipPath><clipPath id="00e5b2eb61"><path d="M 244.472656 233.09375 L 406.207031 233.09375 L 406.207031 394.824219 L 244.472656 394.824219 Z M 244.472656 233.09375 " clip-rule="nonzero"/></clipPath><clipPath id="62872d3001"><path d="M 325.339844 233.09375 C 370 233.09375 406.207031 269.296875 406.207031 313.960938 C 406.207031 358.621094 370 394.824219 325.339844 394.824219 C 280.679688 394.824219 244.472656 358.621094 244.472656 313.960938 C 244.472656 269.296875 280.679688 233.09375 325.339844 233.09375 L 325.339844 265.441406 C 298.542969 265.441406 276.820312 287.164062 276.820312 313.960938 C 276.820312 340.757812 298.542969 362.480469 325.339844 362.480469 C 352.136719 362.480469 373.859375 340.757812 373.859375 313.960938 C 373.859375 287.164062 352.136719 265.441406 325.339844 265.441406 Z M 325.339844 233.09375 " clip-rule="nonzero"/></clipPath><clipPath id="1a446d3634"><path d="M 325 235 L 405 235 L 405 314 L 325 314 Z M 325 235 " clip-rule="nonzero"/></clipPath><clipPath id="5c90b25679"><path d="M 345.558594 235.660156 C 374.042969 243.015625 396.285156 265.257812 403.640625 293.742188 C 405.082031 299.335938 403.433594 305.277344 399.3125 309.324219 C 395.1875 313.375 389.21875 314.914062 383.652344 313.371094 C 378.082031 311.824219 373.765625 307.425781 372.320312 301.828125 C 367.90625 284.738281 354.5625 271.394531 337.46875 266.980469 C 331.875 265.535156 327.476562 261.214844 325.929688 255.648438 C 324.382812 250.082031 325.925781 244.113281 329.972656 239.988281 C 334.023438 235.867188 339.960938 234.214844 345.558594 235.660156 Z M 345.558594 235.660156 " clip-rule="nonzero"/></clipPath><clipPath id="cc8285e355"><path d="M 106.589844 102.238281 L 150.792969 102.238281 L 150.792969 150.9375 L 106.589844 150.9375 Z M 106.589844 102.238281 " clip-rule="nonzero"/></clipPath><clipPath id="bb6bb93d7b"><path d="M 106.589844 102.238281 L 150.792969 102.238281 L 150.792969 139 L 106.589844 139 Z M 106.589844 102.238281 " clip-rule="nonzero"/></clipPath><clipPath id="75e96069e7"><path d="M 128 114 L 150.792969 114 L 150.792969 139 L 128 139 Z M 128 114 " clip-rule="nonzero"/></clipPath><clipPath id="5e0c06f5ae"><path d="M 305.746094 109 L 344.703125 109 L 344.703125 154.382812 L 305.746094 154.382812 Z M 305.746094 109 " clip-rule="nonzero"/></clipPath><clipPath id="85023366df"><path d="M 309 98.945312 L 317 98.945312 L 317 107 L 309 107 Z M 309 98.945312 " clip-rule="nonzero"/></clipPath><clipPath id="b2f627ae46"><path d="M 317 98.945312 L 325 98.945312 L 325 107 L 317 107 Z M 317 98.945312 " clip-rule="nonzero"/></clipPath><clipPath id="9e42b170a2"><path d="M 325 98.945312 L 335 98.945312 L 335 107 L 325 107 Z M 325 98.945312 " clip-rule="nonzero"/></clipPath><clipPath id="c2be179dd7"><path d="M 335 98.945312 L 342 98.945312 L 342 107 L 335 107 Z M 335 98.945312 " clip-rule="nonzero"/></clipPath><clipPath id="6deecb145f"><path d="M 107.792969 290.695312 L 149.75 290.695312 L 149.75 337.144531 L 107.792969 337.144531 Z M 107.792969 290.695312 " clip-rule="nonzero"/></clipPath><clipPath id="7baee08d6e"><path d="M 303.320312 295.582031 L 347.519531 295.582031 L 347.519531 339.785156 L 303.320312 339.785156 Z M 303.320312 295.582031 " clip-rule="nonzero"/></clipPath><clipPath id="0af2047de0"><path d="M 303.320312 295.582031 L 326 295.582031 L 326 339.785156 L 303.320312 339.785156 Z M 303.320312 295.582031 " clip-rule="nonzero"/></clipPath></defs><g clip-path="url(#27b5d5a95a)"><g clip-path="url(#a6d3035bc5)"><path fill="#242424" d="M 0.597656 0.84375 L 462.402344 0.84375 L 462.402344 449.738281 L 0.597656 449.738281 Z M 0.597656 0.84375 " fill-opacity="1" fill-rule="nonzero"/></g></g><g clip-path="url(#63e6e7a4b2)"><g clip-path="url(#0eaa3355a0)"><path fill="#f3e3f8" d="M 47.75 45.710938 L 209.484375 45.710938 L 209.484375 207.445312 L 47.75 207.445312 Z M 47.75 45.710938 " fill-opacity="1" fill-rule="nonzero"/></g></g><g clip-path="url(#902e83f8b2)"><g clip-path="url(#5d39b5acf3)"><path fill="#8c52ff" d="M 47.75 45.710938 L 209.484375 45.710938 L 209.484375 207.445312 L 47.75 207.445312 Z M 47.75 45.710938 " fill-opacity="1" fill-rule="nonzero"/></g></g><g clip-path="url(#0bb20e3fea)"><g clip-path="url(#4956bef893)"><path fill="#f3e3f8" d="M 244.472656 45.710938 L 406.207031 45.710938 L 406.207031 207.445312 L 244.472656 207.445312 Z M 244.472656 45.710938 " fill-opacity="1" fill-rule="nonzero"/></g></g><g clip-path="url(#1f32f7e6ed)"><g clip-path="url(#10329a82b3)"><path fill="#8c52ff" d="M 244.472656 45.710938 L 406.207031 45.710938 L 406.207031 207.445312 L 244.472656 207.445312 Z M 244.472656 45.710938 " fill-opacity="1" fill-rule="nonzero"/></g></g><g clip-path="url(#0ed75d3883)"><g clip-path="url(#a18f300355)"><path fill="#f3e3f8" d="M 47.75 233.09375 L 209.484375 233.09375 L 209.484375 394.824219 L 47.75 394.824219 Z M 47.75 233.09375 " fill-opacity="1" fill-rule="nonzero"/></g></g><g clip-path="url(#df6f41b56a)"><g clip-path="url(#afb6c9749f)"><path fill="#8c52ff" d="M 47.75 233.09375 L 209.484375 233.09375 L 209.484375 394.824219 L 47.75 394.824219 Z M 47.75 233.09375 " fill-opacity="1" fill-rule="nonzero"/></g></g><g clip-path="url(#00e5b2eb61)"><g clip-path="url(#62872d3001)"><path fill="#f3e3f8" d="M 244.472656 233.09375 L 406.207031 233.09375 L 406.207031 394.824219 L 244.472656 394.824219 Z M 244.472656 233.09375 " fill-opacity="1" fill-rule="nonzero"/></g></g><g clip-path="url(#1a446d3634)"><g clip-path="url(#5c90b25679)"><path fill="#8c52ff" d="M 244.472656 233.09375 L 406.207031 233.09375 L 406.207031 394.824219 L 244.472656 394.824219 Z M 244.472656 233.09375 " fill-opacity="1" fill-rule="nonzero"/></g></g><g clip-path="url(#cc8285e355)"><path fill="#00549d" d="M 127.421875 102.6875 C 128.207031 102.246094 129.175781 102.246094 129.960938 102.6875 C 133.84375 104.859375 145.527344 111.398438 149.414062 113.570312 C 150.199219 114.011719 150.683594 114.824219 150.683594 115.703125 C 150.683594 120.046875 150.683594 133.128906 150.683594 137.472656 C 150.683594 138.355469 150.199219 139.167969 149.414062 139.605469 C 145.53125 141.777344 133.84375 148.320312 129.960938 150.492188 C 129.175781 150.933594 128.207031 150.933594 127.421875 150.492188 C 123.539062 148.320312 111.855469 141.777344 107.96875 139.605469 C 107.183594 139.167969 106.699219 138.355469 106.699219 137.476562 C 106.699219 133.128906 106.699219 120.050781 106.699219 115.703125 C 106.699219 114.824219 107.183594 114.011719 107.972656 113.570312 C 111.851562 111.398438 123.539062 104.859375 127.421875 102.6875 Z M 127.421875 102.6875 " fill-opacity="1" fill-rule="evenodd"/></g><g clip-path="url(#bb6bb93d7b)"><path fill="#0086d4" d="M 107.054688 138.59375 C 106.746094 138.183594 106.699219 137.792969 106.699219 137.269531 C 106.699219 132.949219 106.699219 119.941406 106.699219 115.621094 C 106.699219 114.746094 107.183594 113.9375 107.96875 113.503906 C 111.835938 111.34375 123.480469 104.839844 127.351562 102.679688 C 128.136719 102.242188 129.195312 102.25 129.980469 102.6875 C 133.847656 104.847656 145.457031 111.296875 149.324219 113.457031 C 149.636719 113.632812 149.875 113.84375 150.089844 114.121094 Z M 107.054688 138.59375 " fill-opacity="1" fill-rule="evenodd"/></g><path fill="#ffffff" d="M 128.691406 110.433594 C 137.636719 110.433594 144.894531 117.671875 144.894531 126.589844 C 144.894531 135.503906 137.636719 142.746094 128.691406 142.746094 C 119.75 142.746094 112.488281 135.503906 112.488281 126.589844 C 112.488281 117.671875 119.75 110.433594 128.691406 110.433594 Z M 128.691406 118.511719 C 133.164062 118.511719 136.792969 122.128906 136.792969 126.589844 C 136.792969 131.046875 133.164062 134.667969 128.691406 134.667969 C 124.21875 134.667969 120.589844 131.046875 120.589844 126.589844 C 120.589844 122.128906 124.21875 118.511719 128.691406 118.511719 Z M 128.691406 118.511719 " fill-opacity="1" fill-rule="evenodd"/><g clip-path="url(#75e96069e7)"><path fill="#0075c0" d="M 150.085938 114.132812 C 150.683594 114.6875 150.671875 115.527344 150.671875 116.191406 C 150.671875 120.570312 150.636719 133.027344 150.683594 137.40625 C 150.6875 137.863281 150.535156 138.34375 150.308594 138.707031 L 128.21875 126.589844 Z M 150.085938 114.132812 " fill-opacity="1" fill-rule="evenodd"/></g><path fill="#ffffff" d="M 136.792969 123.128906 L 139.109375 123.128906 L 139.109375 130.050781 L 136.792969 130.050781 Z M 144.894531 123.128906 L 147.210938 123.128906 L 147.210938 130.050781 L 144.894531 130.050781 Z M 144.894531 123.128906 " fill-opacity="1" fill-rule="evenodd"/><path fill="#ffffff" d="M 134.480469 125.433594 L 141.421875 125.433594 L 141.421875 127.742188 L 134.480469 127.742188 Z M 142.582031 125.433594 L 149.523438 125.433594 L 149.523438 127.742188 L 142.582031 127.742188 Z M 142.582031 125.433594 " fill-opacity="1" fill-rule="evenodd"/><g clip-path="url(#5e0c06f5ae)"><path fill="#e44d26" d="M 344.917969 109.804688 L 341.351562 149.761719 L 325.316406 154.207031 L 309.328125 149.769531 L 305.765625 109.804688 Z M 344.917969 109.804688 " fill-opacity="1" fill-rule="nonzero"/></g><path fill="#f16529" d="M 325.34375 150.808594 L 338.296875 147.21875 L 341.347656 113.074219 L 325.34375 113.070312 Z M 325.34375 150.808594 " fill-opacity="1" fill-rule="nonzero"/><path fill="#ebebeb" d="M 318.410156 122.875 L 325.34375 122.875 L 325.34375 117.972656 L 313.050781 117.972656 L 313.167969 119.289062 L 314.375 132.792969 L 325.34375 132.792969 L 325.34375 127.894531 L 318.855469 127.894531 Z M 318.410156 122.875 " fill-opacity="1" fill-rule="nonzero"/><path fill="#ebebeb" d="M 319.511719 135.246094 L 314.59375 135.246094 L 315.28125 142.941406 L 325.320312 145.730469 L 325.34375 145.722656 L 325.34375 140.625 L 325.320312 140.628906 L 319.863281 139.15625 Z M 319.511719 135.246094 " fill-opacity="1" fill-rule="nonzero"/><g clip-path="url(#85023366df)"><path fill="#ffffff" d="M 309.410156 98.945312 L 311.898438 98.945312 L 311.898438 101.40625 L 314.179688 101.40625 L 314.179688 98.945312 L 316.667969 98.945312 L 316.667969 106.394531 L 314.179688 106.394531 L 314.179688 103.902344 L 311.898438 103.902344 L 311.898438 106.394531 L 309.410156 106.394531 Z M 309.410156 98.945312 " fill-opacity="1" fill-rule="nonzero"/></g><g clip-path="url(#b2f627ae46)"><path fill="#ffffff" d="M 319.945312 101.414062 L 317.753906 101.414062 L 317.753906 98.945312 L 324.628906 98.945312 L 324.628906 101.414062 L 322.4375 101.414062 L 322.4375 106.394531 L 319.945312 106.394531 Z M 319.945312 101.414062 " fill-opacity="1" fill-rule="nonzero"/></g><g clip-path="url(#9e42b170a2)"><path fill="#ffffff" d="M 325.722656 98.945312 L 328.316406 98.945312 L 329.914062 101.5625 L 331.511719 98.945312 L 334.109375 98.945312 L 334.109375 106.394531 L 331.628906 106.394531 L 331.628906 102.703125 L 329.914062 105.351562 L 329.871094 105.351562 L 328.160156 102.703125 L 328.160156 106.394531 L 325.722656 106.394531 Z M 325.722656 98.945312 " fill-opacity="1" fill-rule="nonzero"/></g><g clip-path="url(#c2be179dd7)"><path fill="#ffffff" d="M 335.351562 98.945312 L 337.839844 98.945312 L 337.839844 103.933594 L 341.34375 103.933594 L 341.34375 106.394531 L 335.351562 106.394531 Z M 335.351562 98.945312 " fill-opacity="1" fill-rule="nonzero"/></g><path fill="#ffffff" d="M 325.324219 132.792969 L 331.363281 132.792969 L 330.792969 139.152344 L 325.324219 140.628906 L 325.324219 145.726562 L 335.375 142.941406 L 335.445312 142.113281 L 336.597656 129.210938 L 336.71875 127.894531 L 325.324219 127.894531 Z M 325.324219 132.792969 " fill-opacity="1" fill-rule="nonzero"/><path fill="#ffffff" d="M 325.324219 122.863281 L 325.324219 122.875 L 337.164062 122.875 L 337.261719 121.773438 L 337.488281 119.289062 L 337.601562 117.972656 L 325.324219 117.972656 Z M 325.324219 122.863281 " fill-opacity="1" fill-rule="nonzero"/><g clip-path="url(#6deecb145f)"><path fill="#0277bd" d="M 149.742188 290.695312 L 107.800781 290.695312 L 111.503906 332.253906 L 128.769531 337.144531 L 146.039062 332.253906 Z M 149.742188 290.695312 " fill-opacity="1" fill-rule="nonzero"/></g><path fill="#039be5" d="M 128.769531 294.359375 L 128.769531 333.355469 L 142.585938 329.441406 L 145.671875 294.359375 Z M 128.769531 294.359375 " fill-opacity="1" fill-rule="nonzero"/><path fill="#ffffff" d="M 139.996094 300.472656 L 128.769531 300.472656 L 128.769531 305.363281 L 134.816406 305.363281 L 134.445312 310.25 L 128.769531 310.25 L 128.769531 315.140625 L 134.199219 315.140625 L 133.828125 320.640625 L 128.769531 322.351562 L 128.769531 327.488281 L 138.515625 324.308594 L 139.378906 310.25 Z M 139.996094 300.472656 " fill-opacity="1" fill-rule="nonzero"/><path fill="#eeeeee" d="M 128.769531 300.472656 L 128.769531 305.363281 L 117.792969 305.363281 L 117.421875 300.472656 Z M 123.097656 310.25 L 123.34375 315.140625 L 128.769531 315.140625 L 128.769531 310.25 Z M 123.589844 317.585938 L 118.65625 317.585938 L 119.027344 324.308594 L 128.769531 327.488281 L 128.769531 322.351562 L 123.714844 320.640625 Z M 123.589844 317.585938 " fill-opacity="1" fill-rule="nonzero"/><g clip-path="url(#7baee08d6e)"><path fill="#ffc44d" d="M 304.957031 295.480469 C 304.515625 295.480469 304.097656 295.667969 303.804688 296 C 303.515625 296.332031 303.378906 296.769531 303.433594 297.207031 L 307.53125 329.980469 C 307.59375 330.488281 307.90625 330.933594 308.367188 331.164062 L 324.753906 339.355469 C 325.1875 339.574219 325.695312 339.574219 326.128906 339.355469 L 342.511719 331.164062 C 342.972656 330.933594 343.289062 330.488281 343.351562 329.980469 L 347.449219 297.207031 C 347.503906 296.769531 347.367188 296.332031 347.074219 296 C 346.785156 295.667969 346.363281 295.480469 345.921875 295.480469 Z M 304.957031 295.480469 " fill-opacity="1" fill-rule="nonzero"/></g><g clip-path="url(#0af2047de0)"><path fill="#e5b045" d="M 325.441406 295.480469 L 325.441406 339.519531 C 325.203125 339.519531 324.96875 339.464844 324.753906 339.355469 L 308.367188 331.164062 C 307.90625 330.933594 307.59375 330.488281 307.53125 329.980469 L 303.433594 297.207031 C 303.378906 296.769531 303.515625 296.332031 303.804688 296 C 304.097656 295.667969 304.515625 295.480469 304.957031 295.480469 Z M 325.441406 295.480469 " fill-opacity="1" fill-rule="evenodd"/></g><path fill="#ffffff" d="M 322.367188 301.625 C 323.214844 301.625 323.902344 302.3125 323.902344 303.160156 L 323.902344 329.789062 C 323.902344 330.335938 323.613281 330.84375 323.140625 331.117188 C 322.664062 331.394531 322.082031 331.394531 321.605469 331.125 L 314.4375 327.027344 C 313.699219 326.605469 313.445312 325.667969 313.863281 324.929688 C 314.285156 324.195312 315.222656 323.9375 315.960938 324.359375 L 320.832031 327.140625 L 320.832031 303.160156 C 320.832031 302.3125 321.519531 301.625 322.367188 301.625 Z M 322.367188 301.625 " fill-opacity="1" fill-rule="evenodd"/><path fill="#ffffff" d="M 326.976562 303.160156 C 326.976562 302.3125 327.664062 301.625 328.511719 301.625 L 338.753906 301.625 C 339.601562 301.625 340.289062 302.3125 340.289062 303.160156 C 340.289062 304.011719 339.601562 304.699219 338.753906 304.699219 L 330.050781 304.699219 L 330.050781 314.558594 L 337.398438 312.925781 C 337.875 312.820312 338.375 312.949219 338.746094 313.273438 C 339.113281 313.597656 339.304688 314.078125 339.261719 314.566406 L 338.234375 325.832031 C 338.1875 326.363281 337.867188 326.828125 337.394531 327.066406 L 329.199219 331.164062 C 328.441406 331.542969 327.519531 331.234375 327.140625 330.476562 C 326.757812 329.71875 327.066406 328.792969 327.824219 328.414062 L 335.253906 324.703125 L 336.011719 316.382812 L 328.847656 317.976562 C 328.390625 318.078125 327.914062 317.964844 327.550781 317.671875 C 327.1875 317.382812 326.976562 316.941406 326.976562 316.476562 Z M 326.976562 303.160156 " fill-opacity="1" fill-rule="evenodd"/></svg>