<svg xmlns="http://www.w3.org/2000/svg" xmlns:xlink="http://www.w3.org/1999/xlink" width="500" zoomAndPan="magnify" viewBox="0 0 375 374.999991" height="500" preserveAspectRatio="xMidYMid meet" version="1.0"><defs><clipPath id="ae3e3e186b"><path d="M 98.277344 102.527344 L 276.777344 102.527344 L 276.777344 360 L 98.277344 360 Z M 98.277344 102.527344 " clip-rule="nonzero"/></clipPath></defs><g clip-path="url(#ae3e3e186b)"><path fill="#ffffff" d="M 267.160156 270.894531 C 267.160156 314.851562 231.398438 350.609375 187.445312 350.609375 C 143.488281 350.609375 107.726562 314.851562 107.726562 270.894531 L 107.726562 191.648438 C 107.726562 147.691406 143.488281 111.933594 187.445312 111.933594 C 231.398438 111.933594 267.160156 147.691406 267.160156 191.648438 Z M 250.378906 128.710938 C 233.503906 111.835938 211.152344 102.542969 187.445312 102.542969 C 163.734375 102.542969 141.386719 111.835938 124.507812 128.710938 C 107.632812 145.589844 98.335938 167.941406 98.335938 191.648438 L 98.335938 270.894531 C 98.335938 294.597656 107.632812 316.949219 124.507812 333.828125 C 141.386719 350.707031 163.734375 360 187.445312 360 C 211.15625 360 233.503906 350.707031 250.378906 333.828125 C 267.253906 316.949219 276.554688 294.597656 276.554688 270.894531 L 276.554688 191.648438 C 276.554688 167.941406 267.253906 145.589844 250.378906 128.710938 " fill-opacity="1" fill-rule="nonzero"/></g><path fill="#ffffff" d="M 192.253906 182.109375 C 192.253906 184.464844 190.339844 186.378906 187.984375 186.378906 L 186.902344 186.378906 C 184.546875 186.378906 182.632812 184.464844 182.632812 182.109375 L 182.632812 153.8125 C 182.632812 151.460938 184.546875 149.542969 186.902344 149.542969 L 187.984375 149.542969 C 190.339844 149.542969 192.253906 151.460938 192.253906 153.8125 Z M 187.984375 140.152344 L 186.902344 140.152344 C 179.371094 140.152344 173.242188 146.28125 173.242188 153.8125 L 173.242188 182.109375 C 173.242188 189.640625 179.371094 195.769531 186.902344 195.769531 L 187.984375 195.769531 C 195.515625 195.769531 201.644531 189.640625 201.644531 182.109375 L 201.644531 153.8125 C 201.644531 146.28125 195.515625 140.152344 187.984375 140.152344 " fill-opacity="1" fill-rule="nonzero"/></svg>