<svg xmlns="http://www.w3.org/2000/svg" xmlns:xlink="http://www.w3.org/1999/xlink" width="500" zoomAndPan="magnify" viewBox="0 0 375 374.999991" height="500" preserveAspectRatio="xMidYMid meet" version="1.0"><defs><clipPath id="c1716b474b"><path d="M 140 9.285156 L 235 9.285156 L 235 61 L 140 61 Z M 140 9.285156 " clip-rule="nonzero"/></clipPath></defs><path fill="#ffffff" d="M 148.234375 91.601562 L 187.546875 52.285156 L 226.863281 91.601562 C 228.699219 93.433594 231.671875 93.433594 233.503906 91.601562 C 235.339844 89.769531 235.339844 86.792969 233.503906 84.960938 L 190.867188 42.324219 C 189.953125 41.40625 188.75 40.949219 187.546875 40.949219 C 186.347656 40.949219 185.144531 41.40625 184.226562 42.324219 L 141.59375 84.960938 C 139.757812 86.792969 139.757812 89.769531 141.59375 91.601562 C 143.425781 93.433594 146.398438 93.433594 148.234375 91.601562 " fill-opacity="1" fill-rule="nonzero"/><g clip-path="url(#c1716b474b)"><path fill="#ffffff" d="M 148.234375 59.613281 L 187.546875 20.296875 L 226.863281 59.613281 C 228.699219 61.449219 231.671875 61.449219 233.503906 59.613281 C 235.339844 57.777344 235.339844 54.808594 233.503906 52.972656 L 190.867188 10.335938 C 189.953125 9.417969 188.75 8.960938 187.546875 8.960938 C 186.347656 8.960938 185.144531 9.417969 184.226562 10.335938 L 141.59375 52.972656 C 139.757812 54.808594 139.757812 57.777344 141.59375 59.613281 C 143.425781 61.449219 146.398438 61.449219 148.234375 59.613281 " fill-opacity="1" fill-rule="nonzero"/></g></svg>